<svg width="70" height="70" viewBox="0 0 70 70" fill="none" xmlns="http://www.w3.org/2000/svg">
<path d="M35 0L37.5469 23.0177L49.2358 3.02591L42.2004 25.0895L61.0101 11.5804L45.6088 28.875L68.287 24.1844L47.1829 33.7195L69.8083 38.6585L46.6504 38.7855L65.3109 52.5L44.1035 43.1968L55.5725 63.3156L39.9825 46.1909L42.2769 69.2352L35 47.25L27.7231 69.2352L30.0175 46.1909L14.4275 63.3156L25.8965 43.1968L4.68911 52.5L23.3496 38.7855L0.191734 38.6585L22.8171 33.7195L1.71302 24.1844L24.3912 28.875L8.98993 11.5804L27.7996 25.0895L20.7642 3.02591L32.4531 23.0177L35 0Z" fill="#FCD043"/>
</svg>
